<?xml version="1.0" encoding="UTF-8" standalone="no"?>
<svg
   xmlns:dc="http://purl.org/dc/elements/1.1/"
   xmlns:cc="http://creativecommons.org/ns#"
   xmlns:rdf="http://www.w3.org/1999/02/22-rdf-syntax-ns#"
   xmlns:svg="http://www.w3.org/2000/svg"
   xmlns="http://www.w3.org/2000/svg"
   xmlns:sodipodi="http://sodipodi.sourceforge.net/DTD/sodipodi-0.dtd"
   xmlns:inkscape="http://www.inkscape.org/namespaces/inkscape"
   xml:space="preserve"
   id="svg2"
   viewBox="0 0 189.08044 169.43752"
   height="169.43752"
   width="189.08044"
   version="1.0"
   sodipodi:docname="feuerwehr-wenns.svg"
   inkscape:version="1.0.2 (e86c870879, 2021-01-15)"><sodipodi:namedview
   pagecolor="#ffffff"
   bordercolor="#666666"
   borderopacity="1"
   objecttolerance="10"
   gridtolerance="10"
   guidetolerance="10"
   inkscape:pageopacity="0"
   inkscape:pageshadow="2"
   inkscape:window-width="956"
   inkscape:window-height="1145"
   id="namedview104"
   showgrid="false"
   fit-margin-top="0"
   fit-margin-left="0"
   fit-margin-right="0"
   fit-margin-bottom="0"
   inkscape:zoom="1"
   inkscape:cx="370.82239"
   inkscape:cy="350.96462"
   inkscape:window-x="960"
   inkscape:window-y="26"
   inkscape:window-maximized="0"
   inkscape:current-layer="svg2" /><metadata
   id="metadata49"><rdf:RDF><cc:Work
       rdf:about=""><dc:format>image/svg+xml</dc:format><dc:type
         rdf:resource="http://purl.org/dc/dcmitype/StillImage" /><dc:title></dc:title></cc:Work></rdf:RDF></metadata><defs
   id="defs89"><clipPath
     clipPathUnits="userSpaceOnUse"
     id="clipPath190"><path
       d="M 0,0 H 595.276 V 841.89 H 0 Z"
       id="path188" /></clipPath><clipPath
     clipPathUnits="userSpaceOnUse"
     id="clipPath214"><path
       d="M 0,0 H 595.276 V 841.89 H 0 Z"
       id="path212" /></clipPath><clipPath
     clipPathUnits="userSpaceOnUse"
     id="clipPath190-3"><path
       d="M 0,0 H 595.276 V 841.89 H 0 Z"
       id="path188-6" /></clipPath><clipPath
     clipPathUnits="userSpaceOnUse"
     id="clipPath214-7"><path
       d="M 0,0 H 595.276 V 841.89 H 0 Z"
       id="path212-5" /></clipPath></defs>
	
		<g
   transform="matrix(0.34226675,0,0,0.34226675,83.69888,0)"
   id="Ebene_2">
			<g
   id="CoA_Nr._11_8_">
				<path
   id="path8"
   style="fill:#ff0000"
   d="M 302.89307,232.21973 V 5 H 5 v 227.21973 c 0,82.25976 66.891113,149.01464 149.15088,149.01464 82.25488,0.005 148.74219,-66.75488 148.74219,-149.01464 z" />
				<path
   id="path10"
   style="fill:none;stroke:#cb952b;stroke-width:10"
   d="M 302.89307,232.21973 V 5 H 5 v 227.21973 c 0,82.25976 66.891113,149.01464 149.15088,149.01464 82.25488,0.005 148.74219,-66.75488 148.74219,-149.01464 z" />
			</g>
		</g>
		<g
   transform="matrix(0.34226675,0,0,0.34226675,83.69888,0)"
   id="Ebene_4">
			<path
   id="path13"
   style="fill:#ffffff"
   d="m 10,212.12695 v 20.09278 c 0,48.40234 24.024414,91.30371 60.785644,117.42773 L 297.89307,115.45898 V 10 h -91.87793 z" />
		</g>
		<g
   transform="matrix(0.34226675,0,0,0.34226675,83.69888,0)"
   id="Ebene_5">
			<g
   id="g16">
				<g
   id="g18">
					<path
   id="path20"
   style="fill:#cb952b"
   d="m 153.94531,272.54395 10.21289,-58.10157 c -3.32031,-0.5791 -6.72656,-0.89843 -10.21289,-0.89843 -3.48437,0 -6.89258,0.31933 -10.21093,0.89843 z" />
				</g>
				<g
   id="g22">
					<path
   id="path24"
   style="fill:#cb952b"
   d="m 153.94531,272.54395 10.21289,58.10156 c -3.32031,0.57812 -6.72656,0.89844 -10.21289,0.89844 -3.48437,0 -6.89258,-0.32032 -10.21093,-0.89844 z" />
				</g>
				<g
   id="g26">
					<path
   id="path28"
   style="fill:#cb952b"
   d="m 153.9458,272.54492 -52.10156,-27.66699 c -1.57715,2.97852 -2.933107,6.11914 -4.010744,9.43457 -1.07666,3.31445 -1.826172,6.6543 -2.300781,9.98926 z" />
				</g>
				<g
   id="g30">
					<path
   id="path32"
   style="fill:#cb952b"
   d="m 153.9458,272.54492 58.41406,8.24121 c -0.47558,3.33692 -1.22363,6.67481 -2.30078,9.99121 -1.07715,3.31348 -2.43457,6.45606 -4.00976,9.43262 z" />
				</g>
				<g
   id="g34">
					<path
   id="path36"
   style="fill:#cb952b"
   d="m 153.9458,272.54297 58.41406,-8.24121 c -0.47461,-3.33692 -1.22363,-6.67481 -2.30078,-9.99121 -1.07715,-3.31348 -2.43359,-6.45606 -4.00976,-9.43262 z" />
				</g>
				<g
   id="g38">
					<path
   id="path40"
   style="fill:#cb952b"
   d="m 153.9458,272.54297 -52.10156,27.66797 c -1.57617,-2.97949 -2.933107,-6.12012 -4.010744,-9.43555 -1.07666,-3.31445 -1.825195,-6.6543 -2.300781,-9.98926 z" />
				</g>
				<g
   id="g42">
					<path
   id="path44"
   style="fill:#cb952b"
   d="m 153.94727,272.54395 25.88916,53.00781 c 3.02734,-1.48242 5.96972,-3.22656 8.79101,-5.27539 2.81836,-2.04883 5.38867,-4.30957 7.73242,-6.72852 z" />
				</g>
				<g
   id="g46">
					<path
   id="path48"
   style="fill:#cb952b"
   d="M 153.94727,272.54395 111.5332,231.54199 c 2.34668,-2.41992 4.91407,-4.68066 7.73438,-6.73047 2.81982,-2.04785 5.76465,-3.79199 8.78955,-5.27441 z" />
				</g>
				<g
   id="g50">
					<path
   id="path52"
   style="fill:#cb952b"
   d="m 153.94629,272.54492 -42.41309,41.00196 c 2.34571,2.41992 4.91358,4.68066 7.7334,6.72949 2.81983,2.04883 5.76465,3.79297 8.78955,5.27539 z" />
				</g>
				<g
   id="g54">
					<path
   id="path56"
   style="fill:#cb952b"
   d="m 153.94629,272.54492 25.88916,-53.00781 c 3.02637,1.4834 5.96973,3.22656 8.79101,5.27539 2.81836,2.04883 5.3877,4.31055 7.73243,6.72852 z" />
				</g>
				<g
   id="g58">
					<circle
   id="circle60"
   style="fill:#cb952b"
   r="47.333496"
   cy="272.54395"
   cx="153.94629" /> 
				</g>
				<g
   id="g62">
					<path
   id="path64"
   style="fill:none;stroke:#ffffff;stroke-width:2"
   d="m 120.66602,260.78906 c -1.29932,3.67774 -2.01319,7.63184 -2.01319,11.75489 0,4.12304 0.71387,8.07714 2.01319,11.75488 l 20.36035,-11.75488 z" />
					<path
   id="path66"
   style="fill:none;stroke:#ffffff;stroke-width:2"
   d="m 127.13574,295.48242 c 5.1416,6.00391 12.26026,10.25684 20.35059,11.75391 V 283.7334 Z" />
					<path
   id="path68"
   style="fill:none;stroke:#ffffff;stroke-width:2"
   d="m 147.48633,237.85156 c -8.09033,1.49707 -15.20947,5.75 -20.35059,11.75391 l 20.35059,11.74902 z" />
					<path
   id="path70"
   style="fill:none;stroke:#ffffff;stroke-width:2"
   d="m 187.22705,284.29883 c 1.29883,-3.67774 2.0127,-7.63281 2.0127,-11.75488 0,-4.12305 -0.71387,-8.07715 -2.0127,-11.75489 l -20.36084,11.75489 z" />
					<path
   id="path72"
   style="fill:none;stroke:#ffffff;stroke-width:2"
   d="m 180.75732,249.60547 c -5.1416,-6.00293 -12.26025,-10.25684 -20.35107,-11.75391 v 23.50391 z" />
					<path
   id="path74"
   style="fill:none;stroke:#ffffff;stroke-width:2"
   d="m 160.40625,307.23633 c 8.09082,-1.49707 15.20947,-5.75098 20.35107,-11.75488 l -20.35107,-11.74903 z" />
				</g>
			</g>
			<g
   id="g76">
				<path
   id="path78"
   style="fill:#cb952b"
   d="m 193.979,61.992188 c -9.74218,6.017089 -16.90527,18.624023 -16.90527,18.624023 0,0 -2.77832,-8.875 -2.86523,-14.326172 -0.0908,-5.681152 0.006,-6.44043 2.5791,-15.185547 0,0 -7.37891,4.384766 -11.55469,10.729981 -3.05811,4.646972 -6.21045,14.770507 -6.21045,14.770507 0,0 -4.01074,-18.910644 -1.43262,-30.944335 2.57813,-12.033692 7.16309,-22.635743 7.16309,-22.635743 0,0 -22.63525,6.01709 -34.38281,46.130371 -11.74756,40.113277 8.30908,69.339357 8.30908,69.339357 0,0 -15.18555,-12.3208 -20.91602,-29.51221 -5.73047,-17.191404 -0.28662,-32.663572 -0.28662,-32.663572 0,0 -27.506345,22.634765 -24.35449,52.433592 2.636719,24.93018 28.12305,55.65967 36.38477,65.04151 h 50.27099 c 6.29981,-4.61524 22.25488,-27.80225 24.22949,-49.85547 1.97461,-22.05323 -4.76562,-38.9043 -4.01074,-52.147464 1.21778,-21.357422 9.66211,-27.199219 18.62403,-35.815918 0,0 -14.89942,0 -24.64161,6.01709 z" />
			</g>
			<path
   id="path80"
   style="fill:#ffffff"
   d="m 175.92822,112.4209 c 0,0 8.8711,11.75 9.16895,26.35986 0.28613,14.04004 -3.43848,20.34326 -9.45606,29.22559 0,0 4.89746,-13.4668 4.58496,-27.50635 -0.28711,-12.89355 -4.29785,-28.0791 -4.29785,-28.0791 z" />
			<path
   id="path82"
   style="fill:#ffffff"
   d="m 152.146,191.21484 h -4.01123 c 0,0 1.91894,-8.15283 -2.00586,-18.05078 -4.31348,-10.87842 -13.2461,-19.60693 -15.14698,-21.71142 -4.6665,-5.167 -6.34228,-8.37403 -6.34228,-8.37403 0,0 6.01709,3.7251 10.31494,8.30957 4.29785,4.58448 9.34131,9.40772 13.63037,17.57764 3.75049,7.14355 3.56104,22.24902 3.56104,22.24902 z" />
			<g
   id="g84">
				<path
   id="path86"
   style="fill:#cb952b"
   d="m 165.77246,210.86914 c 0.40625,0.25879 0.75879,0.56934 1.08106,1 0.75195,1 0.75195,5.5 1.12793,8.5 0.36718,3 1.99462,3.125 2.74658,3.125 0.38281,0 0.64355,-4.54785 2.12402,-8.125 0.58301,-1.41504 1.28906,-3.04004 1.95606,-4.5 h 5.16992 v -14.125 h -52.06299 v 14.125 h 5.17139 c 0.66552,1.45996 1.36865,3.08496 1.95361,4.5 1.47803,3.57715 1.74365,8.125 2.125,8.125 0.75,0 2.375,-0.125 2.75,-3.125 0.375,-3 0.375,-7.5 1.125,-8.5 0.32275,-0.43066 0.67236,-0.74121 1.08154,-1 z" />
			</g>
		</g>
	<g
   id="layer1"
   transform="matrix(2.7196689,0,0,2.7196689,-321.75868,-230.06811)"><g
     id="g4229"><g
       id="g184"
       transform="matrix(0.35277777,0,0,-0.35277777,103.3081,381.367)"><g
         clip-path="url(#clipPath190)"
         id="g186"><g
           transform="translate(43.1265,798.7632)"
           id="g192"><path
             id="path194"
             style="fill:#007dc5;fill-opacity:1;fill-rule:nonzero;stroke:none"
             d="m 0,0 h 112.349 v -77.882 c 0,0 -0.078,-55.629 -56.214,-55.629 C 0,-133.511 0,-77.882 0,-77.882 Z" /></g><g
           transform="translate(43.1265,798.7632)"
           id="g196"><path
             id="path198"
             style="fill:none;stroke:#000000;stroke-width:1.214;stroke-linecap:butt;stroke-linejoin:miter;stroke-miterlimit:4;stroke-dasharray:none;stroke-opacity:1"
             d="m 0,0 h 112.349 v -77.882 c 0,0 -0.078,-55.629 -56.214,-55.629 C 0,-133.511 0,-77.882 0,-77.882 Z" /></g></g></g><g
       transform="matrix(0.35277777,0,0,-0.35277777,125.32916,103.45115)"
       id="g200"><path
         id="path202"
         style="fill:#b49b44;fill-opacity:1;fill-rule:nonzero;stroke:none"
         d="M 0,0 -1.012,-46.371 3.229,-46.41 2.451,0.233 Z" /></g><g
       transform="matrix(0.35277777,0,0,-0.35277777,124.79396,127.46766)"
       id="g204"><path
         id="path206"
         style="fill:#b49b44;fill-opacity:1;fill-rule:nonzero;stroke:none"
         d="M 0,0 -0.389,-25.947 5.135,-26.064 4.979,-0.155 Z" /></g><g
       id="g208"
       transform="matrix(0.35277777,0,0,-0.35277777,103.3081,381.367)"><g
         clip-path="url(#clipPath214)"
         id="g210"><g
           transform="translate(82.8064,706.0601)"
           id="g216"><path
             id="path218"
             style="fill:#b49b44;fill-opacity:1;fill-rule:nonzero;stroke:none"
             d="m 0,0 v 32.211 h 30.46 l 24.275,43.414 c 0,0 7.352,-4.318 10.853,-14.705 3.502,-10.387 1.751,-20.423 1.751,-20.423 L 39.68,4.435 Z" /></g><g
           transform="translate(82.8064,706.0601)"
           id="g220"><path
             id="path222"
             style="fill:none;stroke:#000000;stroke-width:0.467;stroke-linecap:butt;stroke-linejoin:miter;stroke-miterlimit:4;stroke-dasharray:none;stroke-opacity:1"
             d="m 0,0 v 32.211 h 30.46 l 24.275,43.414 c 0,0 7.352,-4.318 10.853,-14.705 3.502,-10.387 1.751,-20.423 1.751,-20.423 L 39.68,4.435 Z" /></g><g
           transform="translate(66.9345,790.0297)"
           id="g224"><path
             id="path226"
             style="fill:#b49b44;fill-opacity:1;fill-rule:nonzero;stroke:none"
             d="m 0,0 c 0,-1.837 -1.489,-3.326 -3.326,-3.326 -1.837,0 -3.326,1.489 -3.326,3.326 0,1.837 1.489,3.326 3.326,3.326 C -1.489,3.326 0,1.837 0,0" /></g><g
           transform="translate(66.9345,790.0297)"
           id="g228"><path
             id="path230"
             style="fill:none;stroke:#000000;stroke-width:0.467;stroke-linecap:butt;stroke-linejoin:miter;stroke-miterlimit:4;stroke-dasharray:none;stroke-opacity:1"
             d="m 0,0 c 0,-1.837 -1.489,-3.326 -3.326,-3.326 -1.837,0 -3.326,1.489 -3.326,3.326 0,1.837 1.489,3.326 3.326,3.326 C -1.489,3.326 0,1.837 0,0 Z" /></g><g
           transform="translate(72.5363,726.892)"
           id="g232"><path
             id="path234"
             style="fill:#b49b44;fill-opacity:1;fill-rule:nonzero;stroke:none"
             d="m 0,0 c 0,-5.06 -4.076,-9.161 -9.103,-9.161 -5.027,0 -9.103,4.101 -9.103,9.161 0,5.06 4.076,9.161 9.103,9.161 C -4.076,9.161 0,5.06 0,0" /></g><g
           transform="translate(72.5363,726.892)"
           id="g236"><path
             id="path238"
             style="fill:none;stroke:#000000;stroke-width:0.467;stroke-linecap:butt;stroke-linejoin:miter;stroke-miterlimit:4;stroke-dasharray:none;stroke-opacity:1"
             d="m 0,0 c 0,-5.06 -4.076,-9.161 -9.103,-9.161 -5.027,0 -9.103,4.101 -9.103,9.161 0,5.06 4.076,9.161 9.103,9.161 C -4.076,9.161 0,5.06 0,0 Z" /></g><g
           transform="translate(57.598,689.8964)"
           id="g240"><path
             id="path242"
             style="fill:#b49b44;fill-opacity:1;fill-rule:nonzero;stroke:none"
             d="m 0,0 c 0,3.126 2.508,5.66 5.602,5.66 3.093,0 5.601,-2.534 5.601,-5.66 0,-3.126 -2.508,-5.66 -5.601,-5.66 C 2.508,-5.66 0,-3.126 0,0" /></g><g
           transform="translate(57.598,689.8964)"
           id="g244"><path
             id="path246"
             style="fill:none;stroke:#000000;stroke-width:0.467;stroke-linecap:butt;stroke-linejoin:miter;stroke-miterlimit:4;stroke-dasharray:none;stroke-opacity:1"
             d="m 0,0 c 0,3.126 2.508,5.66 5.602,5.66 3.093,0 5.601,-2.534 5.601,-5.66 0,-3.126 -2.508,-5.66 -5.601,-5.66 C 2.508,-5.66 0,-3.126 0,0 Z" /></g><g
           transform="translate(61.4491,742.2388)"
           id="g248"><path
             id="path250"
             style="fill:#b49b44;fill-opacity:1;fill-rule:nonzero;stroke:none"
             d="m 0,0 h 11.087 l 7.936,-5.31 V -24.858 L 7.469,-26.259 c 0,0 -1.867,-0.175 -1.342,0.292 0.525,0.467 10.095,4.96 6.186,15.172 -3.385,6.827 -7.937,6.652 -9.921,6.827 -1.983,0.175 -6.243,-2.217 -6.01,1.4 C -3.618,-1.167 0,0 0,0" /></g><g
           transform="translate(61.4491,742.2388)"
           id="g252"><path
             id="path254"
             style="fill:none;stroke:#000000;stroke-width:0.467;stroke-linecap:butt;stroke-linejoin:miter;stroke-miterlimit:4;stroke-dasharray:none;stroke-opacity:1"
             d="m 0,0 h 11.087 l 7.936,-5.31 V -24.858 L 7.469,-26.259 c 0,0 -1.867,-0.175 -1.342,0.292 0.525,0.467 10.095,4.96 6.186,15.172 -3.385,6.827 -7.937,6.652 -9.921,6.827 -1.983,0.175 -6.243,-2.217 -6.01,1.4 C -3.618,-1.167 0,0 0,0 Z M 0.934,44.698 0,0 M 3.54,44.737 4.143,0 m -4.726,-24.158 -0.35,-23.127 M 4.435,-24.1 4.61,-47.421" /></g></g></g><g
       transform="matrix(0.35277777,0,0,-0.35277777,125.39432,103.89723)"
       id="g256"><path
         id="path258"
         style="fill:#b49b44;fill-opacity:1;fill-rule:nonzero;stroke:none"
         d="M 0,0 -0.029,1.245 1.41,1.566 1.517,-0.807 Z" /></g><g
       transform="matrix(0.35277777,0,0,-0.35277777,126.15597,103.90404)"
       id="g260"><path
         id="path262"
         style="fill:#b49b44;fill-opacity:1;fill-rule:nonzero;stroke:none"
         d="M 0,0 -0.019,0.934 -0.661,1.332 -1.089,-0.554 Z" /></g><g
       transform="matrix(0.35277777,0,0,-0.35277777,125.06839,119.33123)"
       id="g264"><path
         id="path266"
         style="fill:#b49b44;fill-opacity:1;fill-rule:nonzero;stroke:none"
         d="M 0,0 -0.029,-0.992 1.152,-1.853 1.546,0.481 Z" /></g><g
       transform="matrix(0.35277777,0,0,-0.35277777,126.36015,119.33123)"
       id="g268"><path
         id="path270"
         style="fill:#b49b44;fill-opacity:1;fill-rule:nonzero;stroke:none"
         d="M 0,0 0.044,-1.138 -2.801,-1.896 V 1.152 Z" /></g><g
       transform="matrix(0.35277777,0,0,-0.35277777,124.85739,128.23964)"
       id="g272"><path
         id="path274"
         style="fill:#b49b44;fill-opacity:1;fill-rule:nonzero;stroke:none"
         d="M 0,0 0.015,1.473 2.611,1.634 2.903,-1.05 Z" /></g><g
       transform="matrix(0.35277777,0,0,-0.35277777,125.63449,127.46766)"
       id="g276"><path
         id="path278"
         style="fill:#b49b44;fill-opacity:1;fill-rule:nonzero;stroke:none"
         d="m 0,0 -0.029,-3.312 2.392,1.007 -0.029,1.182 z" /></g><g
       transform="matrix(0.35277777,0,0,-0.35277777,124.73903,135.93524)"
       id="g280"><path
         id="path282"
         style="fill:#b49b44;fill-opacity:1;fill-rule:nonzero;stroke:none"
         d="M 0,0 0.019,-1.323 5.096,-1.517 5.077,-0.097 3.326,2.062 Z" /></g></g></g></svg>
