<?xml version="1.0" encoding="UTF-8" standalone="no"?>
<svg
   xmlns:dc="http://purl.org/dc/elements/1.1/"
   xmlns:cc="http://creativecommons.org/ns#"
   xmlns:rdf="http://www.w3.org/1999/02/22-rdf-syntax-ns#"
   xmlns:svg="http://www.w3.org/2000/svg"
   xmlns="http://www.w3.org/2000/svg"
   id="svg4077"
   version="1.1"
   viewBox="0 0 40.0625 47.527985"
   height="47.527985mm"
   width="40.0625mm">
  <defs
     id="defs4071">
    <clipPath
       id="clipPath214"
       clipPathUnits="userSpaceOnUse">
      <path
         id="path212"
         d="M 0,0 H 595.276 V 841.89 H 0 Z" />
    </clipPath>
    <clipPath
       id="clipPath190"
       clipPathUnits="userSpaceOnUse">
      <path
         id="path188"
         d="M 0,0 H 595.276 V 841.89 H 0 Z" />
    </clipPath>
  </defs>
  <metadata
     id="metadata4074">
    <rdf:RDF>
      <cc:Work
         rdf:about="">
        <dc:format>image/svg+xml</dc:format>
        <dc:type
           rdf:resource="http://purl.org/dc/dcmitype/StillImage" />
        <dc:title></dc:title>
      </cc:Work>
    </rdf:RDF>
  </metadata>
  <g
     transform="translate(-118.30803,-99.366963)"
     id="layer1">
    <g
       id="g4229">
      <g
         transform="matrix(0.35277777,0,0,-0.35277777,103.3081,381.367)"
         id="g184">
        <g
           id="g186"
           clip-path="url(#clipPath190)">
          <g
             id="g192"
             transform="translate(43.1265,798.7632)">
            <path
               d="m 0,0 h 112.349 v -77.882 c 0,0 -0.078,-55.629 -56.214,-55.629 C 0,-133.511 0,-77.882 0,-77.882 Z"
               style="fill:#007dc5;fill-opacity:1;fill-rule:nonzero;stroke:none"
               id="path194" />
          </g>
          <g
             id="g196"
             transform="translate(43.1265,798.7632)">
            <path
               d="m 0,0 h 112.349 v -77.882 c 0,0 -0.078,-55.629 -56.214,-55.629 C 0,-133.511 0,-77.882 0,-77.882 Z"
               style="fill:none;stroke:#000000;stroke-width:1.21399999;stroke-linecap:butt;stroke-linejoin:miter;stroke-miterlimit:4;stroke-dasharray:none;stroke-opacity:1"
               id="path198" />
          </g>
        </g>
      </g>
      <g
         id="g200"
         transform="matrix(0.35277777,0,0,-0.35277777,125.32916,103.45115)">
        <path
           d="M 0,0 -1.012,-46.371 3.229,-46.41 2.451,0.233 Z"
           style="fill:#b49b44;fill-opacity:1;fill-rule:nonzero;stroke:none"
           id="path202" />
      </g>
      <g
         id="g204"
         transform="matrix(0.35277777,0,0,-0.35277777,124.79396,127.46766)">
        <path
           d="M 0,0 -0.389,-25.947 5.135,-26.064 4.979,-0.155 Z"
           style="fill:#b49b44;fill-opacity:1;fill-rule:nonzero;stroke:none"
           id="path206" />
      </g>
      <g
         transform="matrix(0.35277777,0,0,-0.35277777,103.3081,381.367)"
         id="g208">
        <g
           id="g210"
           clip-path="url(#clipPath214)">
          <g
             id="g216"
             transform="translate(82.8064,706.0601)">
            <path
               d="m 0,0 v 32.211 h 30.46 l 24.275,43.414 c 0,0 7.352,-4.318 10.853,-14.705 3.502,-10.387 1.751,-20.423 1.751,-20.423 L 39.68,4.435 Z"
               style="fill:#b49b44;fill-opacity:1;fill-rule:nonzero;stroke:none"
               id="path218" />
          </g>
          <g
             id="g220"
             transform="translate(82.8064,706.0601)">
            <path
               d="m 0,0 v 32.211 h 30.46 l 24.275,43.414 c 0,0 7.352,-4.318 10.853,-14.705 3.502,-10.387 1.751,-20.423 1.751,-20.423 L 39.68,4.435 Z"
               style="fill:none;stroke:#000000;stroke-width:0.46700001;stroke-linecap:butt;stroke-linejoin:miter;stroke-miterlimit:4;stroke-dasharray:none;stroke-opacity:1"
               id="path222" />
          </g>
          <g
             id="g224"
             transform="translate(66.9345,790.0297)">
            <path
               d="m 0,0 c 0,-1.837 -1.489,-3.326 -3.326,-3.326 -1.837,0 -3.326,1.489 -3.326,3.326 0,1.837 1.489,3.326 3.326,3.326 C -1.489,3.326 0,1.837 0,0"
               style="fill:#b49b44;fill-opacity:1;fill-rule:nonzero;stroke:none"
               id="path226" />
          </g>
          <g
             id="g228"
             transform="translate(66.9345,790.0297)">
            <path
               d="m 0,0 c 0,-1.837 -1.489,-3.326 -3.326,-3.326 -1.837,0 -3.326,1.489 -3.326,3.326 0,1.837 1.489,3.326 3.326,3.326 C -1.489,3.326 0,1.837 0,0 Z"
               style="fill:none;stroke:#000000;stroke-width:0.46700001;stroke-linecap:butt;stroke-linejoin:miter;stroke-miterlimit:4;stroke-dasharray:none;stroke-opacity:1"
               id="path230" />
          </g>
          <g
             id="g232"
             transform="translate(72.5363,726.892)">
            <path
               d="m 0,0 c 0,-5.06 -4.076,-9.161 -9.103,-9.161 -5.027,0 -9.103,4.101 -9.103,9.161 0,5.06 4.076,9.161 9.103,9.161 C -4.076,9.161 0,5.06 0,0"
               style="fill:#b49b44;fill-opacity:1;fill-rule:nonzero;stroke:none"
               id="path234" />
          </g>
          <g
             id="g236"
             transform="translate(72.5363,726.892)">
            <path
               d="m 0,0 c 0,-5.06 -4.076,-9.161 -9.103,-9.161 -5.027,0 -9.103,4.101 -9.103,9.161 0,5.06 4.076,9.161 9.103,9.161 C -4.076,9.161 0,5.06 0,0 Z"
               style="fill:none;stroke:#000000;stroke-width:0.46700001;stroke-linecap:butt;stroke-linejoin:miter;stroke-miterlimit:4;stroke-dasharray:none;stroke-opacity:1"
               id="path238" />
          </g>
          <g
             id="g240"
             transform="translate(57.598,689.8964)">
            <path
               d="m 0,0 c 0,3.126 2.508,5.66 5.602,5.66 3.093,0 5.601,-2.534 5.601,-5.66 0,-3.126 -2.508,-5.66 -5.601,-5.66 C 2.508,-5.66 0,-3.126 0,0"
               style="fill:#b49b44;fill-opacity:1;fill-rule:nonzero;stroke:none"
               id="path242" />
          </g>
          <g
             id="g244"
             transform="translate(57.598,689.8964)">
            <path
               d="m 0,0 c 0,3.126 2.508,5.66 5.602,5.66 3.093,0 5.601,-2.534 5.601,-5.66 0,-3.126 -2.508,-5.66 -5.601,-5.66 C 2.508,-5.66 0,-3.126 0,0 Z"
               style="fill:none;stroke:#000000;stroke-width:0.46700001;stroke-linecap:butt;stroke-linejoin:miter;stroke-miterlimit:4;stroke-dasharray:none;stroke-opacity:1"
               id="path246" />
          </g>
          <g
             id="g248"
             transform="translate(61.4491,742.2388)">
            <path
               d="m 0,0 h 11.087 l 7.936,-5.31 V -24.858 L 7.469,-26.259 c 0,0 -1.867,-0.175 -1.342,0.292 0.525,0.467 10.095,4.96 6.186,15.172 -3.385,6.827 -7.937,6.652 -9.921,6.827 -1.983,0.175 -6.243,-2.217 -6.01,1.4 C -3.618,-1.167 0,0 0,0"
               style="fill:#b49b44;fill-opacity:1;fill-rule:nonzero;stroke:none"
               id="path250" />
          </g>
          <g
             id="g252"
             transform="translate(61.4491,742.2388)">
            <path
               d="m 0,0 h 11.087 l 7.936,-5.31 V -24.858 L 7.469,-26.259 c 0,0 -1.867,-0.175 -1.342,0.292 0.525,0.467 10.095,4.96 6.186,15.172 -3.385,6.827 -7.937,6.652 -9.921,6.827 -1.983,0.175 -6.243,-2.217 -6.01,1.4 C -3.618,-1.167 0,0 0,0 Z M 0.934,44.698 0,0 M 3.54,44.737 4.143,0 m -4.726,-24.158 -0.35,-23.127 M 4.435,-24.1 4.61,-47.421"
               style="fill:none;stroke:#000000;stroke-width:0.46700001;stroke-linecap:butt;stroke-linejoin:miter;stroke-miterlimit:4;stroke-dasharray:none;stroke-opacity:1"
               id="path254" />
          </g>
        </g>
      </g>
      <g
         id="g256"
         transform="matrix(0.35277777,0,0,-0.35277777,125.39432,103.89723)">
        <path
           d="M 0,0 -0.029,1.245 1.41,1.566 1.517,-0.807 Z"
           style="fill:#b49b44;fill-opacity:1;fill-rule:nonzero;stroke:none"
           id="path258" />
      </g>
      <g
         id="g260"
         transform="matrix(0.35277777,0,0,-0.35277777,126.15597,103.90404)">
        <path
           d="M 0,0 -0.019,0.934 -0.661,1.332 -1.089,-0.554 Z"
           style="fill:#b49b44;fill-opacity:1;fill-rule:nonzero;stroke:none"
           id="path262" />
      </g>
      <g
         id="g264"
         transform="matrix(0.35277777,0,0,-0.35277777,125.06839,119.33123)">
        <path
           d="M 0,0 -0.029,-0.992 1.152,-1.853 1.546,0.481 Z"
           style="fill:#b49b44;fill-opacity:1;fill-rule:nonzero;stroke:none"
           id="path266" />
      </g>
      <g
         id="g268"
         transform="matrix(0.35277777,0,0,-0.35277777,126.36015,119.33123)">
        <path
           d="M 0,0 0.044,-1.138 -2.801,-1.896 V 1.152 Z"
           style="fill:#b49b44;fill-opacity:1;fill-rule:nonzero;stroke:none"
           id="path270" />
      </g>
      <g
         id="g272"
         transform="matrix(0.35277777,0,0,-0.35277777,124.85739,128.23964)">
        <path
           d="M 0,0 0.015,1.473 2.611,1.634 2.903,-1.05 Z"
           style="fill:#b49b44;fill-opacity:1;fill-rule:nonzero;stroke:none"
           id="path274" />
      </g>
      <g
         id="g276"
         transform="matrix(0.35277777,0,0,-0.35277777,125.63449,127.46766)">
        <path
           d="m 0,0 -0.029,-3.312 2.392,1.007 -0.029,1.182 z"
           style="fill:#b49b44;fill-opacity:1;fill-rule:nonzero;stroke:none"
           id="path278" />
      </g>
      <g
         id="g280"
         transform="matrix(0.35277777,0,0,-0.35277777,124.73903,135.93524)">
        <path
           d="M 0,0 0.019,-1.323 5.096,-1.517 5.077,-0.097 3.326,2.062 Z"
           style="fill:#b49b44;fill-opacity:1;fill-rule:nonzero;stroke:none"
           id="path282" />
      </g>
    </g>
  </g>
</svg>
